/* XPM */
static char *_1d912790551449ba063e86db5e0b2acZA28SWyTf9WB5rem[] = {
/* columns rows colors chars-per-pixel */
"20 20 110 2 ",
"   c None",
".  c #5B740B",
"X  c #784B34",
"o  c #7A1B68",
"O  c #7E226D",
"+  c #524850",
"@  c #754056",
"#  c #754157",
"$  c #88556A",
"%  c #648903",
"&  c #658904",
"*  c #6E9502",
"=  c #77914F",
"-  c #6D8253",
";  c #738853",
":  c #B4820B",
">  c #B7910D",
",  c #8BAF08",
"<  c #88BA02",
"1  c #94BA08",
"2  c #BCAB11",
"3  c #B09727",
"4  c #E0A103",
"5  c #E5BB07",
"6  c #E6BD07",
"7  c #8CC000",
"8  c #8FC106",
"9  c #A7D209",
"0  c #A6D11D",
"q  c #E8CA09",
"w  c #EAD40A",
"e  c #EAD40B",
"r  c #859D58",
"t  c #8FAA49",
"y  c #8FAB4A",
"u  c #98B94B",
"i  c #89A355",
"p  c #9E9E6B",
"a  c #A9A077",
"s  c #B0B07D",
"d  c #C4814F",
"f  c #ACD147",
"g  c #FFE75C",
"h  c #FFE75D",
"j  c #546CA8",
"k  c #4D64B0",
"l  c #517AC0",
"z  c #4D6FDC",
"x  c #6077DA",
"c  c #917EB0",
"v  c #F95FBE",
"b  c #C274A6",
"n  c #C56AB5",
"m  c #D775B7",
"M  c #E870CA",
"N  c #639697",
"B  c #3EAEC0",
"V  c #3FAFC1",
"C  c #5783DA",
"Z  c #40AFC1",
"A  c #4CA8CF",
"S  c #59AAC2",
"D  c #48B5C8",
"F  c #74B2DB",
"G  c #67C8DD",
"H  c #6BC8D9",
"J  c #6FCADB",
"K  c #6FCBDB",
"L  c #68C9DE",
"P  c #5FD0F7",
"I  c #5FD0F8",
"U  c #5FD1F9",
"Y  c #7BC8ED",
"T  c #68D2EF",
"R  c #7FD7ED",
"E  c #60D2FB",
"W  c #BAB189",
"Q  c #A19DA0",
"!  c #C195A6",
"~  c #C79EAE",
"^  c #D2C9A1",
"/  c #A5B6DB",
"(  c #FB8CD0",
")  c #FC8CD1",
"_  c #9AC6D5",
"`  c #ABD0DC",
"'  c #80D8ED",
"]  c #8CDDF9",
"[  c #8DE0F9",
"{  c #93E1F4",
"}  c #98E9FF",
"|  c #AEE9FB",
" . c #B5EFFF",
".. c #B9EBFC",
"X. c #B0F1FF",
"o. c #B1F1FF",
"O. c #B2F1FF",
"+. c #DAD8D9",
"@. c #F2E9C2",
"#. c #E4DAE2",
"$. c #C2EEFC",
"%. c #C0F6FF",
"&. c #C5F5FF",
"*. c #CBF2FE",
"=. c #CDF1FD",
"-. c #D5F6FF",
";. c #E6F1F5",
":. c #EFFDFF",
">. c #F1FCFF",
",. c white",
/* pixels */
"            &.K L G G D K &.            ",
"        { R R R R R G G G G G H         ",
"      Z ' R ' O.O.O.X.O.O.G G G Z       ",
"    %.} B >.O.O.O.O.O.O.O.O.>.B } %.    ",
"  ,.} } } } } B Z Z V B B } }  . . .,.  ",
"  %.P } } } }  . . .O. . . . .-.-.$.%.  ",
"  P [ P O F  . . . . .-.-. .*.$./ z ]   ",
"_ P P O v Q m ] | ] ; i ] ] ] j +.C k %.",
"_ P P P o M P ] u + = r - ] ] ] l x ] %.",
"_ P P P P P P ] ] t t t ] ] ] n ] =.P %.",
"_ A P P I P P E i ] ] ] ] ] n ) #.c P %.",
"_ A P 0 1 P < 7 * f ] ] ] ] n b ) P P %.",
";.A P 8 , P P & % P ..P ] ] ] P P Y P :.",
"  A . I 9 I P P P P P P P P N P @.P P   ",
"  _ S X d ~ ! 3 g e q T P a W ^ W P _   ",
"    : : 2 # @ $ w w w g 6 a p s w >     ",
"    ,.: : : w w 5 w w w 5 w w 4 : ,.    ",
"      ,.: : : : : 4 4 4 4 : : : ,.      ",
"          _ : : : : : : : : _           ",
"              ` _ _ _ _ `               "
};
