/* XPM */
static char *_df226ddc15749d2d0660d052846041a7ABWBGgQenINwci9[] = {
/* columns rows colors chars-per-pixel */
"20 20 35 1 ",
"  c gray1",
". c #070707",
"X c gray4",
"o c #1B1B1B",
"O c #202020",
"+ c #353535",
"@ c gray26",
"# c #4B4B4B",
"$ c #555555",
"% c gray37",
"& c #646464",
"* c #777777",
"= c #7B7B7B",
"- c #838383",
"; c #848484",
": c #8B8B8B",
"> c #9F9F9F",
", c gray63",
"< c #A5A5A5",
"1 c #AFAFAF",
"2 c #B2B2B2",
"3 c gray74",
"4 c gray76",
"5 c gray77",
"6 c gray80",
"7 c #D2D2D2",
"8 c gray84",
"9 c #DADADA",
"0 c gray90",
"q c #ECECEC",
"w c #EEEEEE",
"e c gray94",
"r c gray97",
"t c #F8F8F8",
"y c white",
/* pixels */
"wyywywwywyywywwywyyw",
"ywwywyywywwywyywyewy",
"yweywyyw6yy@wyywywwy",
"wyywywr4y<yy$ewywyyw",
"ywwywyyyyyyyyyywywwy",
"wyywy5.yyyyyy;wywyyw",
"wyywy: yyyyyy.yywyyw",
"ywwyw- ywyyy* ywywwy",
"wyywyry  y2  oeywyyw",
"ywwywy5=0yw#38ywyewy",
"ywwywy+y. %,yrywywwy",
"wyywyw& 4  r wwywyyw",
"ywwywyy.yyy37yywywwy",
"wyywyewy>.&wowwywyyw",
"wyywywwy7 X&ywwywyyw",
"ywwywyyw919twyywywwy",
"wyywywwywyywywwywyyw",
"ywwywyywyewywyywywwy",
"yweywyywywwywyywywey",
"wyywywwywyywywwywyyw"
};
