/* XPM */
static char *_1e54a57d9024679abfd21c0bf6b6234Ug3GF4bPzaOKcAOW[] = {
/* columns rows colors chars-per-pixel */
"16 20 103 2 ",
"   c None",
".  c #CA2B02",
"X  c #C23902",
"o  c #D53101",
"O  c #DD3201",
"+  c #D43B00",
"@  c #D93902",
"#  c #E22E01",
"$  c #E33705",
"%  c #E03B01",
"&  c #E43901",
"*  c #E73F00",
"=  c #F43C00",
"-  c #F73F00",
";  c #FC3C00",
":  c #FC3D00",
">  c #D34301",
",  c #D74101",
"<  c #DE4400",
"1  c #DC4D02",
"2  c #D45201",
"3  c #D25C02",
"4  c #EA4700",
"5  c #E74A00",
"6  c #F54201",
"7  c #F24502",
"8  c #F64500",
"9  c #F84100",
"0  c #FE4001",
"q  c #FC4300",
"w  c #FD4301",
"e  c #F84901",
"r  c #FF4B01",
"t  c #FD4D01",
"y  c #FD4E00",
"u  c #E95601",
"i  c #FC5600",
"p  c #FE5701",
"a  c #F05E01",
"s  c #F85B00",
"d  c #FB5D01",
"f  c #FC5D02",
"g  c #FA6801",
"h  c #FB6A00",
"j  c #FF6A00",
"k  c #FC7901",
"l  c #FF7D01",
"z  c #FC7E02",
"x  c #EC6411",
"c  c #E56B1A",
"v  c #FC7411",
"b  c #FC7F19",
"n  c #F95022",
"m  c #F37F30",
"M  c #875A43",
"N  c #F47842",
"B  c #FF8102",
"V  c #FE8108",
"C  c #FD8408",
"Z  c #FC860F",
"A  c #FF990E",
"S  c #FE9C15",
"D  c #FEAC0F",
"F  c #FE9F36",
"G  c #FFA12A",
"H  c #FEA432",
"J  c #FEAE31",
"K  c #F7964D",
"L  c #FF9B48",
"P  c #FFA543",
"I  c #FEAF46",
"U  c #FEB046",
"Y  c #FEAB51",
"T  c #F89D6F",
"R  c #F9AB69",
"E  c #FEB561",
"W  c #FFB365",
"Q  c #FEB966",
"!  c #FFBC6A",
"~  c #FEB86C",
"^  c #FDB177",
"/  c #FAB07D",
"(  c #FEBF7D",
")  c #FFC075",
"_  c #FEC375",
"`  c #FEC872",
"'  c #F8B78D",
"]  c #F8BBA0",
"[  c #FFD08D",
"{  c #FECA91",
"}  c #FFD19D",
"|  c #F4C6AB",
" . c #FED3A7",
".. c #FFDAAB",
"X. c #F8CEB5",
"o. c #FED5B2",
"O. c #F9D2B7",
"+. c #FEDBBC",
"@. c #FFE7C0",
"#. c #FEE6CD",
"$. c #FEE8D6",
"%. c #FEEEE2",
"&. c #FEF2E7",
/* pixels */
"                                ",
"              / $.              ",
"            ^   +.              ",
"            W   {               ",
"          _ Z J P               ",
"          F s S %.              ",
"          b l C                 ",
"    &.    L B ` }               ",
"' ~ ! ..@.a j Y [               ",
"  I k f 4 N 5 I #.Q ) o.        ",
"      O.T o O H l A G )         ",
"      v ] @ * e                 ",
"        ] @ @ f 8 t n           ",
"        F 1 g 7 e p ; #         ",
"        W 2 c u 6 r w ; =       ",
"          K 3 > . w w = w $     ",
"              , X + D M i &     ",
"          X. .    R x h V       ",
"                                ",
"                                "
};
