/* XPM */
static char *a7a55c380b57472b989d377c7203d6a5t3wFDrty1BCn49TW[] = {
/* columns rows colors chars-per-pixel */
"16 20 107 2 ",
"   c None",
".  c #1D1317",
"X  c #EC0100",
"o  c #FD0100",
"O  c #FA0105",
"+  c #FE0D02",
"@  c #F72300",
"#  c #FF2400",
"$  c #F02B02",
"%  c #E93A02",
"&  c #F53001",
"*  c #E2182B",
"=  c #DA222B",
"-  c #EE4C02",
";  c #F74A00",
":  c #F84A01",
">  c #FD4801",
",  c #FF4902",
"<  c #FE4E00",
"1  c #FF5900",
"2  c #FF5A00",
"3  c #FE5D01",
"4  c #FE5A05",
"5  c #FF5E04",
"6  c #F4520A",
"7  c #FC5614",
"8  c #FE6100",
"9  c #FF6502",
"0  c #FF6800",
"q  c #FF6B00",
"w  c #FF6F00",
"e  c #FC680D",
"r  c #FF7000",
"t  c #FF7003",
"y  c #FF7701",
"u  c #FE730C",
"i  c #FD710F",
"p  c #FF6210",
"a  c #FF701B",
"s  c #F9761C",
"d  c #F75C25",
"f  c #F1502A",
"g  c #FF5628",
"h  c #FF642D",
"j  c #FD7120",
"k  c #FE7D2E",
"l  c #F44B40",
"z  c #F66641",
"x  c #F17958",
"c  c #FF8402",
"v  c #FF8310",
"b  c #FF8619",
"n  c #FE9415",
"m  c #FF931E",
"M  c #FF8A26",
"N  c #FE9320",
"B  c #FE9329",
"V  c #FF9F2F",
"C  c #FF8136",
"Z  c #FE8832",
"A  c #FF8339",
"S  c #FF903F",
"D  c #FF9E3C",
"F  c #FC804A",
"G  c #FF864E",
"H  c #FE9844",
"J  c #FD9946",
"K  c #FF974B",
"L  c #FF974F",
"P  c #FF984A",
"I  c #F18F57",
"U  c #FE9E5C",
"Y  c #FEB248",
"T  c #FFA158",
"R  c #FFA060",
"E  c #FEA162",
"W  c #FFA663",
"Q  c #FFAB67",
"!  c #FEAA6D",
"~  c #FEA96E",
"^  c #FFB46C",
"/  c #F0AA74",
"(  c #FFAA70",
")  c #FFAF74",
"_  c #FFAF7E",
"`  c #FFB17E",
"'  c #FFCA61",
"]  c #FED37B",
"[  c #F9B293",
"{  c #FEBF94",
"}  c #EAC38B",
"|  c #FDC193",
" . c #FFC294",
".. c #FEC496",
"X. c #FFE081",
"o. c #FECAA3",
"O. c #FFCFA9",
"+. c #FECDAF",
"@. c #FECDB0",
"#. c #FCD2BC",
"$. c #FEDABD",
"%. c #FEDFCA",
"&. c #FDDDCD",
"*. c #E7E3DA",
"=. c #F8E4D6",
"-. c #FFE5D5",
";. c #F5E6DC",
/* pixels */
"                                ",
"                                ",
"                  `             ",
"                  ..            ",
"                %.m >           ",
"                O.p d l O *     ",
"    T         &.^ 6 f + o X =   ",
"  { R C 9       - z 4 < . $ @   ",
"    ! S 3 % 1 g 5 7 h r } 2 > x ",
"      @.E w : q B e b c V Z P   ",
"        #.A ; # D i w n ' X.I   ",
"        J i & w a 8 v Y ] /     ",
"      ( M y @.F G k N J ;.s     ",
"    | Q =.  W q L j K           ",
"    -.      ) [ U | `           ",
"          $.!   *.              ",
"          o.                    ",
"                                ",
"                                ",
"                                "
};
