/* XPM */
static char *b388351673d042cf9a8f3d870ed8e066Rqa4QAoxEiHY2GoK[] = {
/* columns rows colors chars-per-pixel */
"16 20 116 2 ",
"   c None",
".  c #BA2900",
"X  c #C02A00",
"o  c #D42D01",
"O  c #DB2B00",
"+  c #DC2D00",
"@  c #CF3300",
"#  c #DA3000",
"$  c #D83A02",
"%  c #E53500",
"&  c #E73B00",
"*  c #E73C00",
"=  c #E03C06",
"-  c #DB4501",
";  c #D84A01",
":  c #EE4700",
">  c #E74F00",
",  c #EE4D01",
"<  c #F14601",
"1  c #F14A00",
"2  c #FB4309",
"3  c #EA5001",
"4  c #E85703",
"5  c #E65801",
"6  c #E95D01",
"7  c #ED590F",
"8  c #FB5800",
"9  c #FA5A01",
"0  c #E36F01",
"q  c #EB6900",
"w  c #EE6B01",
"e  c #F46400",
"r  c #F96300",
"t  c #FD6000",
"y  c #F96501",
"u  c #FB6601",
"i  c #F86C00",
"p  c #FB6D01",
"a  c #F46F0F",
"s  c #F37701",
"d  c #F97001",
"f  c #FD7101",
"g  c #FD7301",
"h  c #FB7701",
"j  c #FF7400",
"k  c #FF7700",
"l  c #FF7800",
"z  c #FE7A00",
"x  c #FE7A01",
"c  c #FF7E01",
"v  c #FC7D07",
"b  c #ED4E28",
"n  c #E35B3A",
"m  c #FF8201",
"M  c #FF8A01",
"N  c #FE8F01",
"B  c #FF8C02",
"V  c #FE8809",
"C  c #FE8B09",
"Z  c #FE8E0B",
"A  c #FD9801",
"S  c #FE9800",
"D  c #FE9901",
"F  c #FF9C0C",
"G  c #F98C18",
"H  c #FF8C19",
"J  c #FE9412",
"K  c #FE981C",
"L  c #FEA200",
"P  c #FFA70C",
"I  c #FF8928",
"U  c #FD9720",
"Y  c #FE9C20",
"T  c #FF9D21",
"R  c #FF9D25",
"E  c #FF942C",
"W  c #FE9C2F",
"Q  c #F98F3B",
"!  c #FE9D36",
"~  c #FFA127",
"^  c #FEA229",
"/  c #FFA02A",
"(  c #FFAE2D",
")  c #FEA232",
"_  c #FFBD39",
"`  c #FFD531",
"'  c #FFDE3F",
"]  c #FE9749",
"[  c #FEA641",
"{  c #FEA446",
"}  c #FFAC49",
"|  c #FFBD46",
" . c #FEB36F",
".. c #FFBE6A",
"X. c #FFBC73",
"o. c #FFB87F",
"O. c #FFBF7C",
"+. c #FFBC7F",
"@. c #FFC642",
"#. c #FEDB4E",
"$. c #FEC073",
"%. c #FEE56B",
"&. c #FEBB84",
"*. c #FFBF88",
"=. c #FFC394",
"-. c #FDCE9B",
";. c #FED3B1",
":. c #FED5B5",
">. c #FFD8B0",
",. c #FFD5BB",
"<. c #FDD2BC",
"1. c #FEDECA",
"2. c #FFE1C5",
"3. c #FFE8D7",
"4. c #F7E2D8",
"5. c #FEE7D8",
/* pixels */
"                                ",
"                                ",
"              =.~               ",
"              &.x 9             ",
"              +.s e - = 2       ",
"              A B F @ + O n     ",
":.H E         A ; Q X $ w %     ",
"3.^ j , : I A i v > . r ) o b   ",
"  5.o.j t * f 5 d i 0 j y 3 7   ",
"      =.x * m 6 M A | ` ( P 4   ",
"      1.Z 1 # w C L %.#._ !     ",
"      ,.h 9 1 a K ' @.J G       ",
"      ;.x N R U Y { ]           ",
"      } y j $. ...              ",
"      Y ^ V   X.                ",
"    >.! [         <.            ",
"    -.4.                        ",
"    2.$.                        ",
"                                ",
"                                "
};
