/* XPM */
static char *_8c703ea87994edf82414749233ee4d0IW8ovg8FcDjdNCq2[] = {
/* columns rows colors chars-per-pixel */
"20 20 15 1 ",
"  c None",
". c #020101",
"X c #653106",
"o c #EA4A00",
"O c #F54D00",
"+ c #ED6709",
"@ c #F76200",
"# c #9E7651",
"$ c #A9674B",
"% c #F98100",
"& c #DA8032",
"* c #B3826C",
"= c #EBE2DC",
"- c #EDEEEE",
"; c #F6F6F6",
/* pixels */
"                    ",
"                    ",
"                    ",
"                    ",
"                    ",
"                    ",
"           @@       ",
"          @@@@$@    ",
"       X@=@@@@;.@   ",
"   &  X@%+;@@@;@@   ",
"   @@@;@@@;@@@;*o   ",
"   o@o-ooo;@@@@@    ",
"      O@#o--X@@     ",
"       XX#  X       ",
"                    ",
"                    ",
"                    ",
"                    ",
"                    ",
"                    "
};
