/* XPM */
static char *_45e3845890e40eedd63016c46ca638f4k3P70efuEoM1oDJ[] = {
/* columns rows colors chars-per-pixel */
"20 15 36 1 ",
"  c #543259",
". c #57345A",
"X c #57365B",
"o c #58365A",
"O c #59375E",
"+ c #5D3C5E",
"@ c #5D3C5F",
"# c #7A5B4D",
"$ c #67475C",
"% c #724F64",
"& c #6C576E",
"* c #7D6172",
"= c #FFE515",
"- c #FFE61A",
"; c #FFE721",
": c #FFE829",
"> c #FFE938",
", c #FFE93C",
"< c #FEFF51",
"1 c #FEFE54",
"2 c #FEFC59",
"3 c #FFEE64",
"4 c #8F6F85",
"5 c #37CCCE",
"6 c #3DD9D5",
"7 c #00FEFE",
"8 c #1AFCF8",
"9 c #5EC6C1",
"0 c #62C5C4",
"q c #50F7C0",
"w c #6BE5D8",
"e c #44E3E0",
"r c #52F4E7",
"t c #92FCB7",
"y c #CBF28D",
"u c #FFFC82",
/* pixels */
"77777777777777777777",
"7777777777q=-<777777",
"777777;#.7++-<u77777",
"777707++r7++-1277777",
"777767++77++-1t77777",
"777&e7++w7++-1777777",
"777+57++*7++-<77-<77",
"777%47O<X7++-1+--177",
"7777 777+77+-<+--177",
"7777+7 <+778-1$-1<77",
"7777+77+o7773-171777",
"7777777+9777>-177777",
"777777<1777,--<77777",
"77777771177y-:777777",
"77777777777777777777"
};
