/* XPM */
static char *cce3dbf2496c45bfb03c8ec0b5ebb0f8aygV1Vt5dzKSxveI[] = {
/* columns rows colors chars-per-pixel */
"20 15 22 1 ",
"  c #2A2F25",
". c #283120",
"X c #283325",
"o c #283427",
"O c #293E43",
"+ c #2B4E50",
"@ c #2961BF",
"# c #2969D9",
"$ c #0863EC",
"% c #116AEC",
"& c #1166F0",
"* c #226DF5",
"= c #266FF7",
"- c #2970F5",
"; c #2870F8",
": c #2871F9",
"> c #3E7EF9",
", c #32A3F6",
"< c #1FDEFA",
"1 c #1BE6FD",
"2 c #00FEFE",
"3 c #4BC2FC",
/* pixels */
"22222222222222222222",
"22222222222222222222",
"22222222222222222222",
"2222222;#;;;>;;22222",
"222222+;X$o;;;122222",
"22222XX;X-X&O;222$22",
"2222XXX;X:X;o222$222",
"222X .o;X;X-X-;$$222",
"222o;;;;*$o-#--$$<22",
"2222;;;;$;o;--2%$$22",
"22222;;;;;;;*-*22222",
"2222222$12,;---22222",
"22222223-22222222222",
"22222222222222222222",
"22222222222222222222"
};
