/* XPM */
static char *_d39e445c63942ce9793160038aefb16P4y3vqAnm3oxOewf[] = {
/* columns rows colors chars-per-pixel */
"20 20 18 1 ",
"  c None",
". c #1E0300",
"X c #210400",
"o c #2A0600",
"O c #2F0700",
"+ c #340900",
"@ c #4C0E00",
"# c #681701",
"$ c #B62902",
"% c #C02702",
"& c #D22B02",
"* c #D72C02",
"= c #D82C02",
"- c #EB3703",
"; c #EE3803",
": c #F23A03",
"> c #F63B03",
", c white",
/* pixels */
"                    ",
"                    ",
"                    ",
"                    ",
"   ;           ;;   ",
"  ;; ;  #  ,;  O;;  ",
"  ;;;;  ;  ;  ;;;;  ",
"  ;;;; ;;;;;; ;;;;  ",
"   ;; ;;;;;;;; ;;=  ",
"   =; ;;;;;;;;;;;   ",
"    X;;;;;;;;;>=    ",
"     o;;;;;;;;=     ",
"      *;;;;;;&@:    ",
"    ;;% =-;=   +    ",
"     ;;      .      ",
"             $      ",
"                    ",
"                    ",
"                    ",
"                    "
};
